<svg xmlns="http://www.w3.org/2000/svg" width="490.34601" height="139.88031" viewBox="0 0 490.34601 139.88031">
<g style="fill:#0e87fe;fill-opacity:1;fill-rule:nonzero" transform="matrix(3.3858635,0,0,3.3858635,-2.2024262e-4,0)">
    <path
       d="m 142.39,0.504 h -3.256 c -0.93,0 -1.49,0.553 -1.49,1.467 v 9.488 c 0,3.483 -1.907,5.454 -4.56,5.454 -2.791,0 -4.373,-1.787 -4.373,-5.224 V 1.97 c 0,-0.916 -0.562,-1.467 -1.49,-1.467 h -3.256 c -0.93,0 -1.49,0.553 -1.49,1.467 v 10.176 c 0,6.463 3.398,10.129 8.516,10.129 3.07,0 5.444,-1.008 7.118,-3.071 l 0.281,1.284 c 0.187,0.83 0.745,1.283 1.629,1.283 h 2.372 c 0.932,0 1.49,-0.554 1.49,-1.467 V 1.971 C 143.879,1.055 143.321,0.504 142.39,0.504 Z M 119.684,16.18 h -5.862 c -2.047,0 -3.118,-1.054 -3.118,-3.071 V 1.97 c 0,-0.916 -0.562,-1.467 -1.489,-1.467 h -3.35 c -0.93,0 -1.488,0.553 -1.488,1.467 v 11.917 c 0,4.904 3.023,7.888 8.008,7.888 h 7.305 c 0.93,0 1.49,-0.553 1.49,-1.467 v -2.663 c -0.006,-0.916 -0.566,-1.466 -1.496,-1.466 z M 24.858,1.925 C 24.764,0.969 24.252,0.504 23.32,0.504 h -2.466 c -0.79,0 -1.348,0.32 -1.767,1.009 L 13.084,11.505 7.501,1.513 C 7.13,0.82 6.519,0.503 5.733,0.503 h -2.65 c -0.932,0 -1.444,0.466 -1.538,1.422 L 0.011,20.259 c -0.094,1.01 0.422,1.513 1.395,1.513 h 2.979 c 0.93,0 1.489,-0.458 1.535,-1.421 l 0.652,-10.268 3.582,6.366 c 0.373,0.692 0.984,1.01 1.768,1.01 h 2.048 c 0.791,0 1.349,-0.278 1.767,-1.01 l 4.05,-6.83 0.464,10.726 c 0.047,0.969 0.562,1.421 1.49,1.421 h 3.21 c 0.983,0 1.489,-0.503 1.395,-1.512 z m 75.19,-1.421 H 97.49 c -0.885,0 -1.49,0.458 -1.628,1.33 l -0.14,1.054 C 94.28,1.376 92.184,0 88.695,0 c -5.863,0 -10.19,4.538 -10.19,11.092 0,6.417 4.047,11.184 9.817,11.184 3.63,0 6.003,-1.513 7.446,-3.071 l 0.233,1.284 c 0.14,0.83 0.703,1.283 1.582,1.283 h 2.466 c 0.931,0 1.489,-0.554 1.489,-1.467 V 1.971 c -10e-4,-0.916 -0.56,-1.467 -1.49,-1.467 z m -9.995,16.409 c -3.305,0 -5.398,-2.246 -5.398,-5.73 0,-3.528 2.186,-5.82 5.398,-5.82 3.303,0 5.396,2.246 5.396,5.73 -0.007,3.528 -2.193,5.82 -5.396,5.82 z M 74.783,0.504 h -2.558 c -0.885,0 -1.49,0.458 -1.63,1.33 l -0.14,1.054 C 69.013,1.376 66.92,0 63.43,0 57.568,0 53.245,4.263 53.245,10.817 c 0,6.234 4.001,10.634 9.77,10.634 3.583,0 5.724,-1.467 7.166,-3.025 v 1.054 c 0,3.666 -2.094,6.005 -6.513,6.005 -1.813,0 -3.605,-0.377 -5.259,-1.107 -0.883,-0.415 -1.582,-0.23 -2,0.64 l -1.024,2.018 c -0.422,0.83 -0.281,1.513 0.512,1.971 2.466,1.374 5.49,1.925 8.421,1.925 7.305,0 11.958,-4.538 11.958,-10.864 V 1.971 C 76.272,1.055 75.714,0.504 74.783,0.504 Z M 64.78,16.225 c -3.211,0 -5.397,-2.108 -5.397,-5.363 0,-3.437 2.279,-5.5 5.397,-5.5 3.21,0 5.396,1.88 5.396,5.41 0,3.161 -2.278,5.453 -5.396,5.453 z M 49.518,0.504 h -2.559 c -0.885,0 -1.489,0.458 -1.63,1.33 l -0.14,1.054 C 43.748,1.376 41.655,0 38.165,0 c -5.863,0 -10.19,4.538 -10.19,11.092 0,6.417 4.048,11.184 9.818,11.184 3.628,0 6.001,-1.513 7.445,-3.071 l 0.234,1.284 c 0.14,0.83 0.702,1.283 1.582,1.283 h 2.465 c 0.932,0 1.49,-0.554 1.49,-1.467 V 1.971 C 51.007,1.055 50.449,0.504 49.518,0.504 Z M 39.514,16.913 c -3.303,0 -5.398,-2.246 -5.398,-5.73 0,-3.528 2.187,-5.82 5.398,-5.82 3.304,0 5.397,2.246 5.397,5.73 0,3.528 -2.186,5.82 -5.397,5.82 z"
       id="path2-6"
       style="fill:#0e87fe;fill-opacity:1"
       />
</g>
</svg>
